<svg xmlns="http://www.w3.org/2000/svg" width="135" height="45.309" viewBox="0 0 135 45.309">
  <g id="グループ_9306" data-name="グループ 9306" transform="translate(-61.253 -311.809)">
    <g id="グループ_6143" data-name="グループ 6143" transform="translate(102.438 333.64)">
      <path id="パス_551" data-name="パス 551" d="M421.279,398.066c-.923-2.1-1.866-4.174-2.441-5.41a15.858,15.858,0,0,0-.945-1.866,1.913,1.913,0,0,0-.437-.5,1.693,1.693,0,0,0-.44-.25,2.146,2.146,0,0,0-.526-.118l-.658-.052a.688.688,0,0,1-.081-.12.433.433,0,0,1-.042-.14.328.328,0,0,1,0-.13.363.363,0,0,1,.032-.118.348.348,0,0,1,.061-.093.742.742,0,0,1,.089-.064c1.053.039,2.1.083,3.1.083s1.94-.044,2.882-.083a.275.275,0,0,1,.064.037.255.255,0,0,1,.054.051.361.361,0,0,1,.039.076.6.6,0,0,1,.022.093.364.364,0,0,1,0,.106.6.6,0,0,1-.017.108.5.5,0,0,1-.044.1.659.659,0,0,1-.064.1l-.72.052c-.159.015-.327.034-.442.056a.937.937,0,0,0-.243.066.513.513,0,0,0-.128.079.377.377,0,0,0-.074.091.3.3,0,0,0-.03.12.451.451,0,0,0,.007.187,1.645,1.645,0,0,0,.086.324c.056.157.147.38.246.594.231.552.462,1.1.766,1.8s.69,1.521,1.075,2.356l-1.193,2.47" transform="translate(-355.269 -388.851)" fill="#252525"/>
      <path id="パス_552" data-name="パス 552" d="M207.356,403.389v-9.963c0-2.892-.055-3.331-1.656-3.469l-.689-.059c-.167-.111-.113-.607.055-.69,1.352.057,2.234.083,3.476.083,1.078,0,2.015-.027,3.2-.083.166.083.22.579.053.69l-.523.059c-1.6.165-1.652.577-1.652,3.469v3.206c0,.521.053,1.041.355,1.041a1.6,1.6,0,0,0,.772-.294c.389-.334,1.133-1.021,1.411-1.326l2.978-2.98a29.937,29.937,0,0,0,2.15-2.293.793.793,0,0,0,.2-.442c0-.108-.11-.191-.469-.27l-.745-.169a.463.463,0,0,1,.054-.69c.965.057,2.1.083,3.064.083s1.9-.027,2.73-.083a.516.516,0,0,1,.058.69,6.851,6.851,0,0,0-2.567.773,26.06,26.06,0,0,0-3.889,3.23l-2.485,2.342c-.386.388-.635.634-.635.854,0,.192.169.413.522.855,2.622,3.01,4.777,5.49,6.926,7.754a3.457,3.457,0,0,0,2.207,1.129l.748.083a.489.489,0,0,1-.056.692c-.718-.059-1.794-.088-3.089-.088-1.132,0-2.1.03-3.394.088-.194-.059-.276-.525-.112-.692l.636-.113c.386-.049.69-.132.69-.27,0-.167-.222-.388-.414-.638-.526-.663-1.241-1.409-2.292-2.593l-2.2-2.48c-1.576-1.768-2.019-2.318-2.677-2.318-.416,0-.469.359-.469,1.321v3.56c0,2.892.053,3.285,1.6,3.447l.745.083c.165.113.111.6-.054.692-1.352-.059-2.288-.088-3.366-.088-1.132,0-2.068.03-3.2.088a.543.543,0,0,1-.054-.692l.554-.083c1.462-.216,1.517-.555,1.517-3.447" transform="translate(-204.91 -388.851)" fill="#252525"/>
      <path id="パス_553" data-name="パス 553" d="M281.854,401.9v1.434c0,2.946.167,3.388,1.66,3.5l1.046.083a.537.537,0,0,1-.059.692c-1.706-.059-2.647-.088-3.752-.088-1.158,0-2.148.03-3.611.088a.538.538,0,0,1-.052-.692l.855-.083c1.6-.162,1.65-.555,1.65-3.5v-1.409a5.534,5.534,0,0,0-.883-3.418l-3.255-6.378c-.937-1.817-1.352-1.954-2.178-2.1l-.771-.135a.5.5,0,0,1,.054-.69c.884.057,1.876.083,3.2.083,1.272,0,2.263-.027,2.95-.083.252.083.252.526.086.69l-.356.059c-.968.165-1.163.272-1.163.493a13.823,13.823,0,0,0,.857,2.126c1.018,2.066,2.038,4.246,3.117,6.147.855-1.458,1.768-3.059,2.593-4.66a26.74,26.74,0,0,0,1.792-3.667c0-.167-.5-.363-1.159-.439l-.5-.059a.46.46,0,0,1,.054-.69c1,.057,1.8.083,2.679.083.854,0,1.628-.027,2.566-.083a.464.464,0,0,1,.054.69l-.771.135c-1.434.22-2.291,1.988-3.673,4.388l-1.739,3.005c-1.24,2.067-1.3,2.347-1.3,4.473" transform="translate(-253.047 -388.851)" fill="#252525"/>
      <path id="パス_554" data-name="パス 554" d="M334.439,407.079c-6.126,0-9.821-4.39-9.821-9.355a9.542,9.542,0,0,1,9.821-9.766c6.4,0,9.6,4.606,9.6,9.491a9.431,9.431,0,0,1-9.6,9.63m.361-.86c3.339,0,6.482-2.48,6.482-7.916,0-4.552-2.013-9.488-7.312-9.488-2.868,0-6.592,1.956-6.592,8.03,0,4.081,1.987,9.374,7.422,9.374" transform="translate(-290.299 -387.959)" fill="#252525"/>
      <path id="パス_555" data-name="パス 555" d="M403,400.482c-.712,1.478-1.427,2.956-1.972,4.189s-.921,2.225-1.294,3.217a.354.354,0,0,1-.128.054.633.633,0,0,1-.181.03,1.05,1.05,0,0,1-.209-.02.964.964,0,0,1-.229-.064c-.909-2.131-1.837-4.258-2.659-6.094s-1.544-3.4-2.173-4.763-1.159-2.558-1.616-3.554-.83-1.822-1.09-2.313a2.448,2.448,0,0,0-.56-.786,1.586,1.586,0,0,0-.486-.309,2.22,2.22,0,0,0-.6-.142l-.658-.052a.354.354,0,0,1-.067-.1.407.407,0,0,1-.037-.128.553.553,0,0,1,0-.143.5.5,0,0,1,.037-.135.371.371,0,0,1,.061-.1.472.472,0,0,1,.086-.064c.9.039,1.8.081,2.8.081s2.1-.042,3.189-.081a.327.327,0,0,1,.056.03.174.174,0,0,1,.052.044.191.191,0,0,1,.037.054c.01.02.02.044.03.069s0,.061.01.089a.482.482,0,0,1-.01.1.24.24,0,0,1-.025.1.488.488,0,0,1-.042.1.419.419,0,0,1-.052.081l-.636.052c-.116.015-.236.032-.337.054a1.591,1.591,0,0,0-.248.069.8.8,0,0,0-.159.083.619.619,0,0,0-.1.086.216.216,0,0,0-.049.091.161.161,0,0,0-.015.088A18.377,18.377,0,0,0,395,393.735c1.039,2.337,2.976,6.507,4.92,10.676.243-.511.486-1.026.744-1.566s.528-1.115,1.046-2.22,1.277-2.735,2.038-4.366c0,0,0,0,.01.015.309-.653.619-1.3.894-1.91s.5-1.173.732-1.737c.172-.405.334-.815.442-1.12a4.833,4.833,0,0,0,.2-.658,1.751,1.751,0,0,0,.047-.353.834.834,0,0,0-.02-.211.442.442,0,0,0-.069-.142.378.378,0,0,0-.108-.1.75.75,0,0,0-.191-.074,2.621,2.621,0,0,0-.329-.044l-.827-.052a.627.627,0,0,1-.076-.145.479.479,0,0,1-.039-.143.6.6,0,0,1,0-.132.346.346,0,0,1,.034-.111.286.286,0,0,1,.059-.086.333.333,0,0,1,.081-.049c.884.039,1.765.083,2.642.083s1.738-.044,2.6-.083a.255.255,0,0,1,.054.032.288.288,0,0,1,.049.056.382.382,0,0,1,.034.071.289.289,0,0,1,.022.093.383.383,0,0,1,0,.106.416.416,0,0,1-.015.11.483.483,0,0,1-.039.1.441.441,0,0,1-.049.1l-.8.052a1.552,1.552,0,0,0-.5.118,1.832,1.832,0,0,0-.467.3,2.826,2.826,0,0,0-.535.648,12.977,12.977,0,0,0-.766,1.39c-.324.6-.643,1.2-1.286,2.548s-1.591,3.447-2.549,5.549l.01,0" transform="translate(-336.245 -388.851)" fill="#252525"/>
      <path id="パス_556" data-name="パス 556" d="M440.676,398.189c.329.741.658,1.478.985,2.2s.646,1.429.945,2.1.575,1.3.854,1.925c1.213-2.878,2.416-5.75,3.148-7.523s.989-2.436,1.193-2.937.334-.839.526-1.369.427-1.277.648-2.018a.739.739,0,0,0-.02-.167.518.518,0,0,0-.064-.135.56.56,0,0,0-.11-.122.843.843,0,0,0-.169-.1,1.111,1.111,0,0,0-.236-.074,2.789,2.789,0,0,0-.309-.039l-.8-.052a.852.852,0,0,1-.094-.135.787.787,0,0,1-.052-.138.743.743,0,0,1-.007-.128.4.4,0,0,1,.029-.11.28.28,0,0,1,.064-.091.471.471,0,0,1,.086-.064c.97.039,1.94.081,2.811.081s1.635-.042,2.406-.081a.293.293,0,0,1,.054.03.206.206,0,0,1,.047.047.209.209,0,0,1,.039.059.281.281,0,0,1,.027.076.275.275,0,0,1,.015.091.513.513,0,0,1,0,.091c-.01.039-.015.069-.025.1s-.03.061-.044.088a.58.58,0,0,1-.054.081l-.53.052a2.14,2.14,0,0,0-.806.238,2,2,0,0,0-.8.893c-.314.555-.712,1.471-1.007,2.144s-.481,1.118-.67,1.555l-2.016,4.66c-.658,1.522-1.287,3.059-1.863,4.473s-1.081,2.706-1.584,4a.783.783,0,0,1-.1.049.543.543,0,0,1-.138.03.952.952,0,0,1-.167,0,.986.986,0,0,1-.167-.025,1.239,1.239,0,0,1-.143-.054c-.277-.742-.55-1.478-1.061-2.676s-1.237-2.839-1.974-4.488l1.134-2.534" transform="translate(-372.275 -388.851)" fill="#252525"/>
      <path id="パス_557" data-name="パス 557" d="M480.9,403.986l-1.213-3.752c-.191-.6-.3-.687-1.132-.687h-4.167c-.69,0-.854.083-1.046.658l-.968,2.9a10.849,10.849,0,0,0-.609,2.288c0,.339.142.5.8.555l.911.089a.443.443,0,0,1-.052.687c-.722-.059-1.576-.059-2.873-.088-.909,0-1.905.059-2.649.088a.546.546,0,0,1-.056-.687l.916-.089a1.837,1.837,0,0,0,1.652-1.35c.5-1.267,1.267-3.059,2.426-6.153l2.816-7.478a3.981,3.981,0,0,0,.469-1.956,3.109,3.109,0,0,0,1.434-1.048.394.394,0,0,1,.415.25c.359,1.213.8,2.48,1.213,3.695L483,403.018c.8,2.372,1.154,2.789,2.343,2.927l.746.089c.191.132.138.574,0,.687-1.129-.059-2.1-.088-3.337-.088-1.353,0-2.4.059-3.2.088a.457.457,0,0,1-.052-.687l.8-.089c.575-.054.963-.216.963-.5a5.687,5.687,0,0,0-.359-1.463m-4.94-11-1.733,4.8c-.226.634-.2.663.577.663H478.2c.8,0,.857-.108.606-.855l-1.49-4.5a16.17,16.17,0,0,0-.634-1.762h-.054a15.654,15.654,0,0,0-.663,1.654" transform="translate(-392.4 -387.959)" fill="#252525"/>
    </g>
    <g id="グループ_6144" data-name="グループ 6144" transform="translate(61.253 311.809)">
      <path id="パス_558" data-name="パス 558" d="M65.772,340.276c.166-.861.318-1.555.47-2.167a23.58,23.58,0,0,1,.882-2.879c.176-.462.4-1,.629-1.529s.472-1.041.8-1.644.736-1.294,1.1-1.862a17.2,17.2,0,0,1,1.135-1.579c.445-.561,1.018-1.236,1.538-1.789a14.986,14.986,0,0,1,1.484-1.393c-.434-.426-.876-.847-1.887-1.735a41.075,41.075,0,0,1-3.824-3.658,14.114,14.114,0,0,1-3.534-7.369,4.089,4.089,0,0,0-.2-.862c-.221.706-.429,1.418-.736,2.49a63.452,63.452,0,0,0-1.926,8.8c-.2,1.529-.3,2.915-.38,4.5a31.223,31.223,0,0,0,.105,5.389,28.012,28.012,0,0,0,1.437,6.064,12.436,12.436,0,0,0,2.4,4.13c.163-1.025.343-2.05.507-2.911" transform="translate(-61.253 -311.809)" fill="#252525"/>
      <path id="パス_559" data-name="パス 559" d="M97.5,325.005a10.865,10.865,0,0,1-1.235.569c-.419.168-.905.358-1.585.574s-1.549.46-2.635.769-2.39.69-3.449,1.035-1.868.658-2.428.881-.865.359-1.3.566-1.018.49-1.66.853-1.349.813-1.865,1.157-.84.577-1.274.923-.976.806-1.5,1.274a21.358,21.358,0,0,0-1.562,1.533c-.545.6-1.144,1.324-1.595,1.911a16.9,16.9,0,0,0-1.6,2.47c-.2.359-.418.768-.573,1.074-.337.693-.437.924-.665,1.421a17.812,17.812,0,0,0-.694,1.776c-.09.3-.159.63-.247.919s-.2.546-.286.892-.165.784-.25,1.216-.181.862-.262,1.321-.149.95-.212,1.49-.124,1.132-.177,1.576-.088.749-.134,1.217-.1,1.1-.158,1.579c-.114.913-.188,1.41-.257,2.081a6.838,6.838,0,0,1-.156.882,6.066,6.066,0,0,1-.257.728c-.1.269-.22.606-.315.863s-.166.435-.259.679-.208.557-.331.9c-.237.66-.591,1.625-.982,2.55-.2.458-.379.864-.509,1.157s-.21.476-.285.656l2.055-.934a1.951,1.951,0,0,1-.078-.306,3.694,3.694,0,0,1-.056-.5,3.419,3.419,0,0,1,.043-.772,8.9,8.9,0,0,1,.246-1.079c.194-.632.386-1.112.619-1.706.119-.283.241-.543.36-.831s.231-.6.344-.835a4.689,4.689,0,0,1,.784-1.062,5.7,5.7,0,0,1,1.249-1.023,4.506,4.506,0,0,1,.589-.311c.228-.1.522-.2.891-.333s.82-.3,1.3-.442.976-.265,1.851-.482,2.121-.536,2.992-.765,1.369-.38,2-.61,1.411-.539,2.111-.846a22.161,22.161,0,0,0,2.021-.992,23.94,23.94,0,0,0,2.171-1.371c.721-.514,1.4-1.07,1.949-1.547a16.723,16.723,0,0,0,1.447-1.415c.492-.54,1.069-1.221,1.576-1.866s.952-1.258,1.385-1.907.864-1.339,1.331-2.193.97-1.877,1.323-2.626.558-1.229.794-1.836.515-1.343.742-2.016.408-1.288.581-1.9.337-1.22.523-2.011.4-1.759.554-2.575.259-1.481.339-2.153.141-1.356.187-1.876.074-.873.1-1.226a14.7,14.7,0,0,1-1.4,1.378,7.537,7.537,0,0,1-.781.6c-.39.266-.976.629-1.443.882" transform="translate(-65.211 -319.184)" fill="#252525"/>
      <path id="パス_560" data-name="パス 560" d="M97.3,426.6c.38-.1.775-.16,1.164-.249a45.864,45.864,0,0,0,5.127-1.411,21.449,21.449,0,0,0,2.387-.977c1.6-.8,3.115-1.766,3.115-1.766s.607,1.54,1.349,3.012a21.569,21.569,0,0,0,1.473,2.6,23.79,23.79,0,0,0,2.119,2.573s-1.672-.062-3.343-.166c-1.33-.082-2.66-.152-3.985-.291a40.323,40.323,0,0,1-4.028-.541,24.707,24.707,0,0,1-3.3-.974c-1.7-.607-3.342-1.391-3.342-1.391s.625-.238,1.267-.415" transform="translate(-86.06 -390.551)" fill="#252525"/>
    </g>
  </g>
</svg>
