<svg width="72" height="72" viewBox="0 0 72 72" fill="none" xmlns="http://www.w3.org/2000/svg">
<path fill-rule="evenodd" clip-rule="evenodd" d="M36 71C55.33 71 71 55.33 71 36C71 16.67 55.33 1 36 1C16.67 1 1 16.67 1 36C1 55.33 16.67 71 36 71ZM36 72C55.8823 72 72 55.8823 72 36C72 16.1177 55.8823 0 36 0C16.1177 0 0 16.1177 0 36C0 55.8823 16.1177 72 36 72Z" fill="white"/>
<path fill-rule="evenodd" clip-rule="evenodd" d="M53 46L53 26C53 25.4477 52.5523 25 52 25L20 25C19.4477 25 19 25.4477 19 26L19 46C19 46.5523 19.4477 47 20 47L52 47C52.5523 47 53 46.5523 53 46ZM54 26C54 24.8954 53.1046 24 52 24L20 24C18.8954 24 18 24.8954 18 26L18 46C18 47.1046 18.8954 48 20 48L52 48C53.1046 48 54 47.1046 54 46L54 26Z" fill="white"/>
<path d="M54 31L54 41L52 41C51.4477 41 51 40.5523 51 40L51 32C51 31.4477 51.4477 31 52 31L54 31Z" fill="white"/>
</svg>
